<svg xmlns="http://www.w3.org/2000/svg" viewBox="25 75 1180 440">
  <!-- slurrrp wordmark — red bubble letters with a merged white contour.
       Drawn as stroke centerlines painted twice: wide white, then red on top. -->
  <g fill="none" stroke-linecap="round" stroke-linejoin="round">
    <path stroke="#ffffff" stroke-width="100" d="M272 225 L152 225 Q97 225 97 261 Q97 298 152 298 L222 298 Q277 298 277 334 Q277 370 222 370 L102 370 M355 145 L355 285 M355 364 L355 370 M430 225 L430 330 Q430 370 467.5 370 Q505 370 505 330 L505 225 M575 225 L575 370 M575 262 Q575 225 617 225 Q655 225 655 262 L655 318 M722 225 L722 370 M722 262 Q722 225 764 225 Q802 225 802 262 L802 318 M869 225 L869 370 M869 262 Q869 225 911 225 Q949 225 949 262 L949 318 M1016 225 L1016 440 M1016 225 L1090 225 Q1131 225 1131 262 L1131 333 Q1131 370 1090 370 L1016 370"/>
    <path stroke="#ee1111" stroke-width="60" d="M272 225 L152 225 Q97 225 97 261 Q97 298 152 298 L222 298 Q277 298 277 334 Q277 370 222 370 L102 370 M355 145 L355 285 M355 364 L355 370 M430 225 L430 330 Q430 370 467.5 370 Q505 370 505 330 L505 225 M575 225 L575 370 M575 262 Q575 225 617 225 Q655 225 655 262 L655 318 M722 225 L722 370 M722 262 Q722 225 764 225 Q802 225 802 262 L802 318 M869 225 L869 370 M869 262 Q869 225 911 225 Q949 225 949 262 L949 318 M1016 225 L1016 440 M1016 225 L1090 225 Q1131 225 1131 262 L1131 333 Q1131 370 1090 370 L1016 370"/>
  </g>
</svg>
